#define RSS_Icon_width 20
#define RSS_Icon_height 20
static unsigned short RSS_Icon_bits[] = {
   0x000f, 0x0000, 0x00ff, 0x0000, 0x03ff, 0x0000, 0x07ff, 0x0000, 0x1ff8,
   0x0000, 0x3fc0, 0x0000, 0x7f00, 0x0000, 0xfc01, 0x0000, 0xf81f, 0x0000,
   0xf07f, 0x0001, 0xe0ff, 0x0003, 0xe1ff, 0x0003, 0xc3f0, 0x0003, 0xc7e0,
   0x0007, 0x87c0, 0x0007, 0x8f8e, 0x0007, 0x8f1f, 0x000f, 0x0f1f, 0x000f,
   0x0f1f, 0x000f, 0x0f0e, 0x000f };
